{
  "accessors": [
    {
      "bufferView": 2,
      "componentType": 5126,
      "count": 6290,
      "max": [
        3.984914541244507,
        1.6459627151489258,
        3.7145473957061768
      ],
      "min": [
        -3.984914541244507,
        -1.6459627151489258,
        -3.7145473957061768
      ],
      "type": "VEC3"
    },
    {
      "bufferView": 2,
      "byteOffset": 75480,
      "componentType": 5126,
      "count": 6290,
      "max": [
        0.9999996423721313,
        0.9999996423721313,
        1.0
      ],
      "min": [
        -0.9999996423721313,
        -1.0,
        -0.9999995231628418
      ],
      "type": "VEC3"
    },
    {
      "bufferView": 1,
      "componentType": 5126,
      "count": 6290,
      "max": [
        0.9939807057380676,
        0.9873227477073669
      ],
      "min": [
        0.006326824426651001,
        0.011901959776878357
      ],
      "type": "VEC2"
    },
    {
      "bufferView": 0,
      "componentType": 5125,
      "count": 35553,
      "type": "SCALAR"
    }
  ],
  "asset": {
    "extras": {
      "author": "Elcompa_Puente (https://sketchfab.com/Elcompa_Puente)",
      "license": "CC-BY-4.0 (http://creativecommons.org/licenses/by/4.0/)",
      "source": "https://sketchfab.com/3d-models/miss-minutes-340e54652da34894a7186ace2ab54416",
      "title": "MISS MINUTES"
    },
    "generator": "Sketchfab-12.67.0",
    "version": "2.0"
  },
  "bufferViews": [
    {
      "buffer": 0,
      "byteLength": 142212,
      "name": "floatBufferViews",
      "target": 34963
    },
    {
      "buffer": 0,
      "byteLength": 50320,
      "byteOffset": 142212,
      "byteStride": 8,
      "name": "floatBufferViews",
      "target": 34962
    },
    {
      "buffer": 0,
      "byteLength": 150960,
      "byteOffset": 192532,
      "byteStride": 12,
      "name": "floatBufferViews",
      "target": 34962
    }
  ],
  "buffers": [
    {
      "byteLength": 343492,
      "uri": "scene.bin"
    }
  ],
  "images": [
    {
      "uri": "textures/BODY_baseColor.png"
    }
  ],
  "materials": [
    {
      "alphaMode": "BLEND",
      "doubleSided": true,
      "emissiveFactor": [
        1.0,
        1.0,
        1.0
      ],
      "emissiveTexture": {
        "index": 0
      },
      "name": "BODY",
      "pbrMetallicRoughness": {
        "baseColorFactor": [
          1.0,
          1.0,
          1.0,
          0.810373079425302
        ],
        "baseColorTexture": {
          "index": 0
        },
        "metallicFactor": 0.0,
        "roughnessFactor": 0.8040408205773457
      }
    }
  ],
  "meshes": [
    {
      "name": "ARM L.001_BODY_0",
      "primitives": [
        {
          "attributes": {
            "NORMAL": 1,
            "POSITION": 0,
            "TEXCOORD_0": 2
          },
          "indices": 3,
          "material": 0,
          "mode": 4
        }
      ]
    }
  ],
  "nodes": [
    {
      "children": [
        1
      ],
      "matrix": [
        1.0,
        0.0,
        0.0,
        0.0,
        0.0,
        2.220446049250313e-16,
        -1.0,
        0.0,
        0.0,
        1.0,
        2.220446049250313e-16,
        0.0,
        0.0,
        0.0,
        0.0,
        1.0
      ],
      "name": "Sketchfab_model"
    },
    {
      "children": [
        2
      ],
      "matrix": [
        0.009999999776482582,
        0.0,
        0.0,
        0.0,
        0.0,
        0.0,
        0.009999999776482582,
        0.0,
        0.0,
        -0.009999999776482582,
        0.0,
        0.0,
        0.0,
        0.0,
        0.0,
        1.0
      ],
      "name": "c70b49a571884a188c257e644f53b106.fbx"
    },
    {
      "children": [
        3,
        5
      ],
      "name": "RootNode"
    },
    {
      "children": [
        4
      ],
      "matrix": [
        57.0485980422895,
        2.8502589431489143,
        -82.08127077016563,
        0.0,
        -1.6266931991268145,
        99.95935662016979,
        2.340478916814792,
        0.0,
        82.11463240685461,
        3.9856954460680656e-08,
        57.07178524074838,
        0.0,
        -155.29209899902344,
        8.415339469909668,
        227.21726989746094,
        1.0
      ],
      "name": "Camera"
    },
    {
      "name": "Object_4"
    },
    {
      "children": [
        6
      ],
      "matrix": [
        4.2142863273620605,
        0.0,
        0.0,
        0.0,
        -0.0,
        -6.86594391605533e-07,
        -4.214286327362005,
        0.0,
        0.0,
        4.214286327362005,
        -6.86594391605533e-07,
        0.0,
        -1.5451624393463135,
        14.421574592590332,
        0.8600201606750488,
        1.0
      ],
      "name": "ARM L.001"
    },
    {
      "mesh": 0,
      "name": "ARM L.001_BODY_0"
    }
  ],
  "samplers": [
    {
      "magFilter": 9729,
      "minFilter": 9987,
      "wrapS": 10497,
      "wrapT": 10497
    }
  ],
  "scene": 0,
  "scenes": [
    {
      "name": "Sketchfab_Scene",
      "nodes": [
        0
      ]
    }
  ],
  "textures": [
    {
      "sampler": 0,
      "source": 0
    }
  ]
}
